# xmcd
#
# Track frame offsets:
# 150
# 15428
# 28182
# 44564
# 60570
# 75682
# 87378
# 99039
# 110469
# 132062
#
# Disc length: 2003 seconds
#
#
# Revision: 0
# Processed by: cddbd v1.5.1PL0 Copyright (c) Steve Scherf et al.
# Submitted via: FreeRIP 2.30 
#
DISCID=7207d10a
DTITLE=Kina Lankford - Copenhagen Kisses
DYEAR=2004
DGENRE=Texas
TTITLE0=Gunshy
TTITLE1=Peeling My Label
TTITLE2=Love Me And Then
TTITLE3=Your Love Is A 4-Letter Word
TTITLE4=If YOur Heart Is Set On Leaving
TTITLE5=Copenhagen Kisses
TTITLE6=Fist City
TTITLE7=Songs About Saturday Night
TTITLE8=She Remembers The Roses
TTITLE9=Small Town
EXTD=
EXTT0=
EXTT1=
EXTT2=
EXTT3=
EXTT4=
EXTT5=
EXTT6=
EXTT7=
EXTT8=
EXTT9=
PLAYORDER=
